<?xml version="1.0" standalone="no"?>
<!DOCTYPE svg PUBLIC "-//W3C//DTD SVG 20010904//EN"
 "http://www.w3.org/TR/2001/REC-SVG-20010904/DTD/svg10.dtd">
<svg version="1.0" xmlns="http://www.w3.org/2000/svg"
 width="512.000000pt" height="512.000000pt" viewBox="0 0 512.000000 512.000000"
 preserveAspectRatio="xMidYMid meet">

<g transform="translate(0.000000,512.000000) scale(0.100000,-0.100000)"
fill="#000000" stroke="none">
<path d="M2437 4666 c-3 -8 -26 -22 -52 -31 -45 -18 -46 -19 -43 -59 l3 -41
62 -3 c55 -3 65 -6 83 -32 29 -40 25 -69 -16 -115 -20 -22 -47 -56 -62 -75
-39 -53 -52 -60 -107 -60 -41 0 -56 5 -73 23 -29 30 -28 61 3 125 16 32 25 69
25 98 0 39 -5 51 -31 75 -25 24 -40 29 -79 29 -27 0 -52 -4 -55 -10 -3 -5 -17
-10 -30 -10 -12 0 -25 -7 -29 -15 -3 -8 -12 -15 -19 -15 -8 0 -41 -25 -73 -56
-33 -30 -69 -60 -82 -65 -24 -9 -22 -29 3 -29 10 0 11 -7 2 -35 -6 -19 -14
-35 -19 -35 -4 0 -8 -5 -8 -11 0 -6 -18 -39 -41 -72 l-41 -60 27 7 c27 7 27 6
21 -26 -4 -18 -9 -46 -12 -63 -3 -16 -12 -44 -20 -62 -8 -17 -14 -42 -14 -56
0 -14 -4 -28 -9 -31 -4 -3 -11 -24 -14 -48 -4 -32 -2 -45 11 -54 14 -10 15
-15 5 -25 -7 -7 -13 -26 -13 -43 0 -30 -4 -47 -34 -142 -9 -29 -16 -64 -16
-78 0 -15 -7 -38 -16 -51 -9 -13 -13 -29 -10 -34 4 -6 0 -27 -9 -47 -8 -20
-13 -39 -11 -42 8 -8 50 27 79 65 26 35 28 36 34 15 3 -12 8 -22 12 -22 12 0
100 48 127 69 15 12 34 21 43 21 9 0 32 13 51 28 19 16 43 31 52 35 20 7 68
79 68 101 0 9 10 20 23 27 41 21 88 74 109 122 21 49 41 57 46 19 5 -30 13
-27 40 13 12 19 28 35 35 35 24 0 50 -77 44 -129 -16 -129 -28 -196 -37 -205
-5 -5 -10 -26 -10 -46 0 -20 -5 -41 -12 -48 -18 -18 -3 -25 21 -10 29 18 51
-3 33 -32 -6 -11 -12 -28 -12 -39 0 -10 -7 -24 -15 -31 -8 -7 -15 -19 -15 -26
0 -15 -21 -19 -92 -15 -44 3 -48 1 -53 -23 -3 -14 -7 -36 -10 -48 -2 -13 -21
-32 -43 -45 -40 -23 -42 -30 -33 -111 0 -7 14 -26 31 -43 l30 -31 72 17 c41 9
81 23 91 30 16 12 15 15 -11 43 -29 30 -48 85 -36 103 3 5 16 9 29 9 13 0 27
5 30 10 3 6 20 10 36 10 25 0 33 -6 45 -35 16 -40 19 -101 4 -110 -24 -15 -6
-24 58 -29 37 -2 86 -8 110 -11 38 -6 42 -5 42 13 0 12 5 24 10 27 6 3 10 28
10 55 0 39 4 52 19 60 31 16 59 12 75 -12 13 -18 18 -20 28 -10 9 9 10 19 1
42 -18 49 5 60 124 60 104 0 133 5 133 22 0 10 -56 80 -131 162 -44 48 -99
135 -99 156 0 6 -12 34 -26 63 -28 56 -33 105 -15 150 15 39 34 34 58 -17 12
-24 47 -65 77 -92 31 -26 56 -55 56 -65 0 -9 7 -22 15 -29 8 -7 15 -19 15 -26
0 -8 12 -20 28 -26 15 -7 40 -25 56 -40 17 -15 40 -28 51 -28 12 0 34 -11 49
-25 15 -14 32 -25 39 -25 7 0 27 -9 45 -20 21 -13 42 -18 57 -14 18 4 27 0 40
-20 10 -14 26 -26 37 -26 17 0 19 5 14 40 -3 22 -10 49 -16 59 -5 11 -10 32
-10 46 0 14 -5 35 -11 46 -6 11 -15 44 -20 72 -18 95 -26 132 -34 150 -4 10
-2 24 5 32 14 17 10 56 -15 135 -9 30 -19 70 -22 89 -3 18 -11 44 -18 58 -20
37 -9 64 24 57 22 -4 23 -4 9 6 -10 6 -18 16 -18 21 0 6 -20 38 -44 72 -55 77
-58 88 -26 97 l25 6 -30 24 c-16 14 -49 43 -74 66 -94 84 -153 114 -226 114
-29 0 -48 -7 -68 -25 -44 -42 -40 -116 14 -217 31 -59 -13 -108 -96 -108 -34
0 -57 5 -65 15 -12 15 -8 71 11 133 11 33 3 71 -29 141 -15 33 -15 34 13 57
25 19 27 24 13 29 -10 4 -21 4 -27 1 -5 -4 -29 0 -53 9 -24 8 -53 15 -64 15
-12 0 -27 7 -34 15 -16 20 -96 20 -103 1z m130 -1128 c7 -11 27 -119 36 -193
2 -19 -4 -20 -83 -19 l-85 1 -3 32 c-4 35 24 80 51 81 10 0 17 8 17 20 0 11 7
23 15 26 8 4 15 16 15 28 0 35 21 48 37 24z m153 -147 c15 -29 12 -68 -6 -75
-9 -3 -19 -4 -24 -1 -11 7 -22 73 -15 85 10 16 34 11 45 -9z"/>
<path d="M976 3843 c-11 -42 -64 -83 -107 -83 -29 0 -38 -5 -48 -26 -6 -14 -9
-30 -5 -35 3 -5 -2 -12 -10 -15 -9 -3 -16 -11 -16 -18 0 -6 -13 -25 -28 -42
-15 -17 -26 -36 -24 -42 2 -6 -4 -25 -14 -43 -11 -22 -13 -34 -6 -37 12 -4 4
-32 -12 -45 -7 -5 -4 -7 7 -3 25 8 31 -15 13 -49 -14 -26 -14 -31 -1 -38 8 -4
15 -16 15 -27 0 -10 3 -25 6 -34 15 -40 22 -6 22 112 1 127 4 143 48 239 8 18
31 45 50 60 33 25 37 26 49 10 15 -21 25 -12 25 25 0 31 14 37 29 11 8 -16 11
-15 29 7 18 22 18 27 5 59 -20 47 -19 47 -27 14z"/>
<path d="M1020 3856 c0 -9 5 -16 10 -16 6 0 10 4 10 9 0 6 -4 13 -10 16 -5 3
-10 -1 -10 -9z"/>
<path d="M3981 3854 c0 -11 3 -14 6 -6 3 7 2 16 -1 19 -3 4 -6 -2 -5 -13z"/>
<path d="M4008 3823 c-12 -26 -11 -30 12 -52 21 -19 26 -20 28 -7 6 28 20 17
27 -20 6 -35 7 -35 26 -18 18 16 20 16 41 -2 35 -30 57 -58 58 -71 0 -7 5 -13
10 -13 6 0 10 -10 10 -22 1 -13 7 -34 15 -48 10 -18 14 -61 15 -152 0 -79 4
-128 10 -128 6 0 10 11 10 24 0 34 10 56 25 56 11 0 11 5 -1 28 -19 36 -18 63
1 56 13 -5 14 -2 5 21 -9 24 -8 26 12 21 13 -3 17 -3 10 0 -15 7 -45 62 -46
86 -1 9 -11 28 -23 42 -13 15 -23 30 -23 35 0 5 -7 14 -15 21 -8 7 -14 18 -13
24 1 6 -3 21 -10 34 -9 16 -22 22 -48 22 -21 0 -43 8 -56 20 -15 14 -29 18
-47 14 -24 -6 -25 -5 -8 8 11 8 16 20 11 31 -9 24 -21 21 -36 -10z"/>
<path d="M1085 3817 c-11 -5 -27 -13 -35 -17 -20 -9 -26 -50 -8 -50 18 0 83
66 71 73 -4 2 -17 0 -28 -6z"/>
<path d="M3900 3818 c0 -8 10 -22 23 -31 22 -15 22 -15 2 -31 -11 -8 -15 -16
-8 -16 6 0 15 5 18 10 3 6 17 7 31 4 27 -7 28 -5 14 30 -6 18 -17 26 -33 26
-13 0 -28 5 -35 12 -9 9 -12 8 -12 -4z"/>
<path d="M1085 3750 c-3 -5 1 -10 10 -10 9 0 13 5 10 10 -3 6 -8 10 -10 10 -2
0 -7 -4 -10 -10z"/>
<path d="M656 3731 c-4 -7 -5 -15 -2 -18 9 -9 19 4 14 18 -4 11 -6 11 -12 0z"/>
<path d="M1132 3718 c5 -15 28 -18 29 -3 0 6 -7 12 -17 13 -10 3 -15 -1 -12
-10z"/>
<path d="M3850 3714 c0 -9 5 -14 12 -12 18 6 21 28 4 28 -9 0 -16 -7 -16 -16z"/>
<path d="M4345 3720 c3 -5 10 -10 16 -10 5 0 9 5 9 10 0 6 -7 10 -16 10 -8 0
-12 -4 -9 -10z"/>
<path d="M1079 3664 c-11 -14 -10 -18 6 -30 25 -19 75 -18 75 0 0 45 -52 65
-81 30z"/>
<path d="M3867 3673 c-4 -3 -7 -17 -7 -30 0 -19 5 -23 28 -23 16 0 37 7 48 15
19 15 19 15 0 30 -20 16 -58 20 -69 8z"/>
<path d="M653 3573 c-16 -6 -17 -33 -3 -33 13 0 70 29 70 35 0 6 -51 5 -67 -2z"/>
<path d="M4300 3575 c0 -6 57 -35 70 -35 20 0 10 28 -12 34 -28 7 -58 8 -58 1z"/>
<path d="M1365 3501 c-7 -12 12 -24 25 -16 11 7 4 25 -10 25 -5 0 -11 -4 -15
-9z"/>
<path d="M3625 3499 c-10 -15 1 -23 20 -15 9 3 13 10 10 16 -8 13 -22 13 -30
-1z"/>
<path d="M1047 3433 c-13 -12 -7 -23 12 -23 26 0 35 16 15 24 -19 7 -19 7 -27
-1z"/>
<path d="M3937 3434 c-9 -10 2 -24 19 -24 8 0 14 7 14 15 0 15 -21 21 -33 9z"/>
<path d="M600 3405 c0 -9 5 -15 11 -13 6 2 11 8 11 13 0 5 -5 11 -11 13 -6 2
-11 -4 -11 -13z"/>
<path d="M4390 3406 c0 -9 7 -16 16 -16 9 0 14 5 12 12 -6 18 -28 21 -28 4z"/>
<path d="M1327 3403 c-4 -3 -2 -12 4 -19 8 -10 16 -11 31 -3 17 9 18 13 7 20
-17 10 -33 11 -42 2z"/>
<path d="M3647 3403 c-4 -3 -2 -12 4 -20 9 -10 15 -10 25 -2 8 6 14 15 14 20
0 10 -34 12 -43 2z"/>
<path d="M500 3360 c0 -11 5 -20 10 -20 6 0 10 9 10 20 0 11 -4 20 -10 20 -5
0 -10 -9 -10 -20z"/>
<path d="M4495 3370 c-4 -6 -3 -16 3 -22 6 -6 12 -6 17 2 4 6 3 16 -3 22 -6 6
-12 6 -17 -2z"/>
<path d="M782 3210 c0 -14 2 -19 5 -12 2 6 2 18 0 25 -3 6 -5 1 -5 -13z"/>
<path d="M2869 3186 c12 -14 12 -23 1 -56 -7 -22 -24 -49 -36 -61 -28 -26 -30
-42 -9 -59 8 -7 15 -19 15 -26 0 -12 -60 -14 -357 -13 -197 0 -352 3 -345 6
22 9 13 33 -13 33 -14 0 -25 -5 -25 -11 0 -7 -13 -9 -37 -5 -63 11 -86 9 -100
-10 -19 -26 -17 -31 23 -44 38 -13 118 -73 194 -146 43 -40 82 -64 192 -113
26 -12 73 -42 104 -67 l56 -46 37 35 c33 32 172 117 191 117 23 0 100 52 170
115 43 39 97 79 121 89 101 42 99 40 54 44 -53 5 -75 30 -73 81 1 44 -20 77
-59 92 -13 5 -23 15 -23 23 0 7 -12 17 -27 20 -16 4 -37 10 -48 13 -18 5 -18
4 -6 -11z"/>
<path d="M800 3125 c0 -15 4 -24 10 -20 6 3 10 12 10 20 0 8 -4 17 -10 20 -6
4 -10 -5 -10 -20z"/>
<path d="M4200 3125 c1 -26 2 -28 11 -12 8 14 8 22 0 30 -8 8 -11 3 -11 -18z"/>
<path d="M675 3078 c-4 -9 -5 -25 -3 -34 2 -14 5 -15 14 -3 7 8 8 22 4 34 -7
18 -9 18 -15 3z"/>
<path d="M2720 3070 c-8 -5 -11 -12 -7 -16 4 -4 15 0 24 9 18 18 8 23 -17 7z"/>
<path d="M4320 3061 c0 -10 7 -21 15 -25 11 -4 15 1 15 19 0 16 -6 25 -15 25
-8 0 -15 -9 -15 -19z"/>
<path d="M4182 3050 c0 -14 2 -19 5 -12 2 6 2 18 0 25 -3 6 -5 1 -5 -13z"/>
<path d="M820 3044 c0 -8 5 -12 10 -9 6 3 10 10 10 16 0 5 -4 9 -10 9 -5 0
-10 -7 -10 -16z"/>
<path d="M840 2969 c0 -24 23 -21 28 4 2 10 -3 17 -12 17 -10 0 -16 -9 -16
-21z"/>
<path d="M4150 2970 c0 -19 11 -26 23 -14 8 8 -3 34 -14 34 -5 0 -9 -9 -9 -20z"/>
<path d="M1796 2963 c-4 -9 -3 -20 2 -25 6 -6 11 1 14 16 6 29 -6 35 -16 9z"/>
<path d="M767 2933 c-3 -16 -8 -35 -12 -45 -5 -12 1 -18 25 -23 19 -4 35 -16
40 -28 7 -17 9 -11 9 27 1 38 -2 47 -13 43 -10 -4 -17 4 -21 24 -8 37 -21 37
-28 2z"/>
<path d="M1538 2913 c-5 -53 7 -75 54 -99 34 -17 38 -17 38 0 0 7 -11 21 -24
29 -16 11 -28 33 -36 66 -7 28 -16 51 -20 51 -4 0 -10 -21 -12 -47z"/>
<path d="M3211 2953 c0 -5 4 -17 9 -28 8 -18 9 -17 9 8 1 15 -3 27 -9 27 -5 0
-10 -3 -9 -7z"/>
<path d="M3456 2948 c-2 -7 -9 -33 -16 -57 -7 -27 -18 -45 -30 -48 -10 -3 -21
-11 -24 -19 -10 -26 16 -26 55 1 37 26 39 30 39 81 0 31 -5 54 -10 54 -6 0
-12 -6 -14 -12z"/>
<path d="M4225 2934 c-11 -17 -26 -29 -32 -27 -9 3 -13 -9 -12 -44 0 -38 2
-43 9 -26 6 14 21 24 44 29 37 6 43 13 27 30 -5 5 -11 23 -13 39 l-3 30 -20
-31z"/>
<path d="M871 2903 c1 -43 12 -64 28 -54 11 7 11 15 1 45 -14 43 -30 47 -29 9z"/>
<path d="M4120 2904 c-13 -32 -13 -51 0 -59 11 -7 30 35 30 66 0 27 -19 24
-30 -7z"/>
<path d="M1797 2763 c-16 -16 -4 -56 33 -109 44 -64 46 -71 26 -135 -13 -41
-32 -111 -57 -204 -6 -22 -15 -50 -19 -62 -7 -16 -5 -22 10 -26 13 -3 21 -17
25 -43 15 -94 29 -147 67 -259 22 -66 43 -138 45 -160 3 -22 14 -52 24 -67 25
-35 24 -46 -6 -60 -14 -6 -31 -21 -40 -34 -12 -19 -22 -22 -60 -20 -25 1 -48
-1 -51 -6 -8 -12 -54 -10 -54 3 0 6 -22 9 -59 7 -48 -2 -61 -7 -65 -21 -4 -15
-8 -17 -25 -8 -30 16 -41 13 -51 -14 -5 -14 -15 -25 -21 -25 -6 0 -20 -11 -31
-25 -23 -29 -62 -33 -97 -9 -32 23 -101 26 -123 7 -13 -12 -21 -13 -31 -5 -10
9 -18 8 -33 -3 -10 -8 -26 -15 -35 -15 -9 0 -22 -7 -29 -15 -7 -8 -22 -13 -34
-10 -31 7 -86 -46 -86 -84 0 -32 -18 -51 -64 -66 -24 -8 -32 -17 -34 -38 -2
-16 0 -36 4 -45 4 -10 6 -25 5 -35 -2 -11 7 -26 18 -34 23 -16 28 -58 8 -66
-6 -2 -23 -4 -37 -3 -21 1 -25 6 -26 34 0 18 -4 36 -10 40 -16 11 -44 60 -44
77 0 8 -4 15 -10 15 -5 0 -10 -9 -10 -20 0 -11 -5 -20 -12 -20 -20 0 -76 -49
-92 -81 -21 -43 -20 -59 7 -93 23 -28 24 -29 123 -27 69 1 127 9 191 26 51 14
104 25 117 25 13 0 37 7 52 15 16 8 43 15 61 15 17 0 35 5 38 10 10 16 131 12
144 -4 30 -36 -42 -92 -154 -121 -38 -10 -74 -22 -80 -27 -5 -4 -18 -8 -30 -8
-23 0 -78 -57 -71 -74 3 -6 10 -29 17 -51 13 -41 25 -55 47 -55 9 0 10 5 2 19
-15 30 -14 31 43 31 28 0 93 9 142 21 50 11 106 23 126 28 19 4 41 11 48 16 7
4 38 11 69 15 32 5 93 16 137 25 107 22 168 29 628 64 135 10 174 9 527 -20
193 -15 293 -26 340 -37 65 -15 148 -30 200 -37 24 -3 49 -10 55 -14 5 -5 24
-11 40 -14 17 -3 64 -15 105 -26 41 -11 106 -21 143 -21 66 0 67 -1 57 -21
-14 -25 -11 -30 18 -22 14 3 22 13 22 26 0 11 5 35 12 54 11 30 10 35 -17 63
-16 16 -36 30 -46 30 -9 0 -30 7 -45 15 -16 8 -37 15 -46 15 -17 0 -38 7 -116
42 -44 19 -69 55 -58 83 5 15 17 16 79 12 70 -5 89 -9 212 -42 152 -41 186
-47 283 -52 l103 -5 -26 -34 c-14 -19 -23 -34 -19 -34 12 0 84 74 105 108 20
30 20 34 5 57 -9 13 -16 30 -16 36 0 15 -48 57 -77 69 -15 6 -21 15 -17 25 3
8 1 15 -5 15 -7 0 -14 -8 -17 -18 -18 -51 -30 -71 -48 -76 -16 -4 -17 -8 -7
-20 19 -22 -3 -57 -32 -52 -12 3 -25 5 -29 5 -14 2 -8 60 6 68 13 8 26 53 29
108 2 26 -2 31 -38 43 -47 15 -67 37 -59 67 8 31 -59 89 -92 81 -17 -5 -26 -2
-30 9 -4 8 -17 15 -29 15 -13 0 -27 5 -31 11 -3 6 -17 8 -31 5 -15 -4 -30 -1
-40 9 -10 10 -25 14 -39 11 -12 -3 -26 -1 -30 5 -3 6 -9 7 -13 2 -12 -17 -61
-43 -82 -43 -12 0 -37 14 -56 30 -18 17 -38 30 -42 30 -5 0 -11 10 -14 21 -4
15 -11 20 -21 15 -9 -3 -22 -9 -30 -12 -8 -3 -17 2 -20 13 -7 22 -89 30 -124
11 -17 -9 -28 -9 -40 -2 -9 6 -35 10 -57 9 -31 -1 -46 4 -67 23 l-28 26 0 -32
c0 -35 -21 -52 -64 -52 -30 0 -32 10 -11 50 11 22 23 30 43 30 24 1 25 2 10
13 -14 11 -15 17 -5 34 42 72 46 82 37 88 -5 3 -6 15 -1 28 5 12 17 42 26 67
10 25 21 54 26 65 4 11 15 52 24 90 8 39 20 86 25 105 5 19 11 48 12 65 2 19
11 33 25 41 12 6 19 15 15 20 -7 8 -24 60 -52 164 -5 19 -18 65 -28 101 -22
76 -17 100 37 161 31 35 41 68 20 68 -18 0 -91 -55 -173 -129 -70 -63 -198
-141 -233 -141 -22 0 -111 -91 -130 -132 -29 -62 -36 -153 -22 -282 11 -101
11 -120 -5 -182 -50 -193 -50 -198 -31 -279 12 -54 16 -96 11 -152 -3 -43 -8
-120 -12 -171 l-6 -92 -46 -40 c-24 -22 -53 -40 -64 -40 -22 0 -144 96 -152
120 -3 8 -1 33 5 55 41 154 44 178 25 251 -31 117 -31 124 9 223 47 116 51
189 16 274 -21 52 -23 68 -18 148 5 58 3 108 -5 137 -20 80 -114 157 -278 226
-14 6 -45 33 -70 59 -108 115 -132 138 -163 151 -54 22 -73 27 -80 19z m213
-1165 c27 -44 26 -48 -15 -48 -38 0 -70 34 -59 64 11 28 52 19 74 -16z m-216
-107 c9 -14 -4 -41 -19 -41 -18 0 -28 17 -21 35 6 17 32 20 40 6z m1466 -16
c0 -25 -23 -35 -35 -15 -10 16 2 40 20 40 9 0 15 -9 15 -25z m-1572 -53 c3
-19 -1 -23 -15 -20 -10 2 -19 14 -21 26 -3 19 1 23 15 20 10 -2 19 -14 21 -26z
m1682 16 c0 -24 -18 -41 -34 -35 -14 5 -15 11 -6 27 12 22 40 27 40 8z m-1494
-33 c3 -8 3 -19 0 -24 -10 -16 -36 -1 -36 20 0 22 28 26 36 4z m1300 3 c9 -15
-27 -41 -39 -29 -13 13 -1 41 17 41 8 0 18 -5 22 -12z m-1897 -67 c12 -8 12
-12 2 -25 -18 -22 -41 -20 -41 2 0 31 14 39 39 23z m2496 -15 c0 -26 -19 -31
-40 -10 -13 14 -14 19 -3 25 20 14 43 6 43 -15z m-2610 -6 c8 -13 -20 -24 -41
-16 -20 8 -9 26 16 26 10 0 22 -5 25 -10z m551 -1 c3 -6 0 -15 -7 -20 -22 -13
-49 -11 -49 5 0 23 43 35 56 15z m1632 -12 c3 -14 -1 -18 -20 -15 -12 2 -24
11 -26 21 -3 14 1 18 20 15 12 -2 24 -11 26 -21z m552 8 c0 -9 -9 -15 -25 -15
-24 0 -32 10 -18 23 12 13 43 7 43 -8z m-2076 -26 c-8 -13 -24 -1 -24 18 0 13
3 13 15 3 8 -7 12 -16 9 -21z m1396 12 c0 -14 -18 -23 -30 -16 -6 4 -8 11 -5
16 8 12 35 12 35 0z m-1085 -39 c0 -31 -19 -28 -23 4 -3 18 0 25 10 22 7 -3
13 -14 13 -26z m775 3 c0 -18 -5 -25 -20 -25 -20 0 -28 28 -13 43 15 16 33 6
33 -18z m-1581 -38 c13 -16 5 -27 -21 -27 -11 0 -18 7 -18 20 0 23 22 27 39 7z
m2396 -7 c0 -8 -10 -16 -22 -18 -22 -3 -32 16 -16 32 12 11 38 2 38 -14z
m-1688 -6 c3 -8 1 -20 -6 -27 -8 -8 -15 -6 -25 8 -8 11 -12 23 -10 27 9 14 34
9 41 -8z m977 7 c9 -14 -4 -41 -19 -41 -15 0 -28 27 -19 41 3 5 11 9 19 9 8 0
16 -4 19 -9z m-1874 -21 c0 -11 -7 -23 -16 -27 -20 -8 -36 17 -22 34 16 20 38
15 38 -7z m2778 8 c8 -8 9 -15 1 -25 -15 -18 -36 -16 -43 3 -12 31 18 46 42
22z m-1688 -23 c0 -16 -6 -25 -15 -25 -21 0 -31 30 -14 41 23 14 29 11 29 -16z
m599 9 c2 -2 -2 -10 -9 -19 -20 -23 -40 -18 -40 11 0 22 3 24 23 18 12 -3 24
-8 26 -10z m-1589 -43 c0 -23 -16 -36 -25 -21 -9 14 1 40 15 40 5 0 10 -9 10
-19z m2560 -6 c0 -26 -14 -33 -25 -15 -9 14 1 40 15 40 5 0 10 -11 10 -25z
m-1735 -55 c0 -22 -29 -18 -33 3 -3 14 1 18 15 15 10 -2 18 -10 18 -18z m923
3 c-5 -26 -38 -29 -38 -4 0 15 6 21 21 21 14 0 19 -5 17 -17z m-808 -9 c0 -9
-7 -14 -17 -12 -25 5 -28 28 -4 28 12 0 21 -6 21 -16z m690 7 c0 -13 -26 -32
-33 -24 -14 13 -6 33 13 33 11 0 20 -4 20 -9z"/>
<path d="M1348 2728 c17 -18 48 -50 67 -72 35 -38 36 -38 56 -20 20 18 20 18
-9 29 -16 5 -47 29 -69 53 -22 23 -48 42 -58 42 -15 0 -12 -6 13 -32z"/>
<path d="M3642 2740 c-12 -12 -29 -32 -38 -45 -8 -13 -29 -27 -45 -30 -25 -6
-27 -9 -19 -26 6 -10 15 -19 19 -19 10 0 62 52 104 105 32 39 17 50 -21 15z"/>
<path d="M801 2734 c0 -11 3 -14 6 -6 3 7 2 16 -1 19 -3 4 -6 -2 -5 -13z"/>
<path d="M4200 2734 c0 -8 5 -12 10 -9 6 4 8 11 5 16 -9 14 -15 11 -15 -7z"/>
<path d="M473 2553 c9 -2 23 -2 30 0 6 3 -1 5 -18 5 -16 0 -22 -2 -12 -5z"/>
<path d="M4518 2553 c6 -2 18 -2 25 0 6 3 1 5 -13 5 -14 0 -19 -2 -12 -5z"/>
<path d="M255 2530 c3 -5 10 -10 16 -10 5 0 9 5 9 10 0 6 -7 10 -16 10 -8 0
-12 -4 -9 -10z"/>
<path d="M4740 2530 c0 -5 4 -10 9 -10 6 0 13 5 16 10 3 6 -1 10 -9 10 -9 0
-16 -4 -16 -10z"/>
<path d="M292 2503 c4 -21 33 -25 33 -3 0 8 -8 16 -18 18 -14 3 -18 -1 -15
-15z"/>
<path d="M4690 2507 c0 -21 12 -28 27 -16 19 16 16 29 -7 29 -11 0 -20 -6 -20
-13z"/>
<path d="M1385 2360 c-3 -5 -1 -10 4 -10 6 0 11 5 11 10 0 6 -2 10 -4 10 -3 0
-8 -4 -11 -10z"/>
<path d="M3620 2360 c0 -5 5 -10 11 -10 5 0 7 5 4 10 -3 6 -8 10 -11 10 -2 0
-4 -4 -4 -10z"/>
<path d="M254 2349 c-3 -6 -18 -9 -33 -6 -15 3 -33 2 -41 -4 -17 -10 -19 -10
43 -14 40 -2 47 0 47 16 0 21 -6 24 -16 8z"/>
<path d="M4750 2334 c0 -8 13 -11 41 -9 36 2 66 13 43 16 -56 6 -84 4 -84 -7z"/>
<path d="M1595 2330 c3 -5 8 -10 11 -10 2 0 4 5 4 10 0 6 -5 10 -11 10 -5 0
-7 -4 -4 -10z"/>
<path d="M1624 2276 c-39 -14 -64 -34 -64 -53 0 -11 4 -11 21 -2 27 14 42 0
37 -37 -2 -23 -9 -30 -30 -32 -24 -3 -28 0 -28 22 0 14 -4 26 -10 26 -12 0
-13 -87 -1 -94 12 -8 74 16 88 34 7 9 8 19 2 25 -5 5 -9 23 -9 41 0 23 7 36
25 48 14 9 23 21 20 26 -7 12 -10 11 -51 -4z"/>
<path d="M3340 2280 c0 -6 9 -18 20 -27 11 -10 20 -26 20 -37 0 -20 0 -20 14
0 13 16 18 17 35 6 18 -11 21 -10 21 6 0 18 -12 26 -73 51 -34 14 -37 14 -37
1z"/>
<path d="M1200 2253 c0 -7 14 -43 31 -80 29 -63 32 -66 45 -48 8 10 14 24 14
29 -1 16 -89 113 -90 99z"/>
<path d="M3779 2228 c-13 -17 -33 -39 -43 -49 -18 -17 -18 -20 -2 -44 20 -31
36 -32 36 -2 0 12 6 31 13 42 22 34 37 74 29 79 -5 3 -19 -9 -33 -26z"/>
<path d="M1312 2220 c-20 -32 -14 -45 8 -17 11 14 20 28 20 31 0 13 -16 5 -28
-14z"/>
<path d="M3680 2229 c0 -9 7 -22 15 -29 19 -16 19 0 0 26 -12 16 -14 16 -15 3z"/>
<path d="M4260 2208 c0 -16 5 -28 10 -28 13 0 13 20 0 40 -8 12 -10 9 -10 -12z"/>
<path d="M740 2199 c0 -11 5 -17 10 -14 6 3 10 13 10 21 0 8 -4 14 -10 14 -5
0 -10 -9 -10 -21z"/>
<path d="M3460 2178 c0 -24 -4 -28 -29 -28 -16 0 -31 5 -33 12 -2 6 -10 8 -16
4 -20 -12 2 -37 44 -52 30 -10 40 -10 46 -1 11 17 10 59 -2 77 -8 12 -10 9
-10 -12z"/>
<path d="M757 2113 c-4 -3 -7 -11 -7 -17 0 -6 5 -5 12 2 6 6 9 14 7 17 -3 3
-9 2 -12 -2z"/>
<path d="M4250 2111 c0 -6 5 -13 10 -16 6 -3 10 1 10 9 0 9 -4 16 -10 16 -5 0
-10 -4 -10 -9z"/>
<path d="M1622 2060 c0 -14 2 -19 5 -12 2 6 2 18 0 25 -3 6 -5 1 -5 -13z"/>
<path d="M3747 2066 c-3 -8 1 -20 9 -26 12 -10 14 -8 14 14 0 28 -14 35 -23
12z"/>
<path d="M1250 2054 c0 -8 5 -12 10 -9 6 3 10 10 10 16 0 5 -4 9 -10 9 -5 0
-10 -7 -10 -16z"/>
<path d="M2487 904 c-4 -4 -21 -7 -39 -8 -25 -1 -33 -5 -32 -18 0 -10 1 -40 2
-68 1 -29 7 -50 13 -50 6 0 9 9 6 20 -3 11 -1 23 5 26 5 4 7 21 4 38 l-6 31
20 -30 c11 -16 20 -42 20 -57 0 -33 11 -41 45 -32 28 7 33 21 9 26 -19 3 -26
70 -12 100 5 11 2 18 -8 22 -19 7 -19 7 -27 0z"/>
<path d="M2275 890 c-4 -6 -11 -8 -16 -5 -5 4 -18 3 -29 0 -18 -6 -19 -9 -6
-26 9 -13 12 -35 8 -64 -3 -29 -1 -45 6 -45 6 0 12 25 14 58 2 43 7 57 18 57
12 0 14 -12 12 -58 -2 -51 0 -58 15 -55 12 3 17 12 15 27 -3 28 21 24 27 -5 4
-21 21 -35 34 -27 4 2 1 16 -7 29 -9 13 -16 44 -16 69 0 28 -4 44 -10 40 -5
-3 -10 -17 -10 -31 0 -14 -4 -22 -10 -19 -5 3 -10 19 -10 36 0 29 -22 41 -35
19z"/>
<path d="M2641 878 c-4 -13 -7 -45 -7 -73 1 -39 5 -50 19 -53 18 -4 24 22 7
33 -16 10 -12 77 7 97 15 17 15 18 -1 18 -9 0 -20 -10 -25 -22z"/>
<path d="M2707 893 c-8 -17 0 -134 10 -144 18 -18 33 -1 23 26 -6 15 -6 27 0
30 7 4 6 13 0 26 -7 13 -7 25 0 38 5 11 10 22 10 25 0 9 -38 7 -43 -1z"/>
<path d="M2044 872 c-13 -9 -12 -142 1 -142 6 -1 12 10 13 22 2 13 8 28 13 35
7 7 6 14 -1 18 -7 5 -9 20 -5 41 6 33 0 41 -21 26z"/>
<path d="M2165 868 c-2 -7 -5 -24 -7 -38 -4 -31 -22 -24 -22 9 -1 37 -26 39
-26 3 0 -17 -3 -37 -6 -46 -4 -11 0 -16 13 -16 14 0 19 -7 19 -22 -1 -18 5
-23 24 -23 24 0 25 2 22 51 -2 30 1 55 7 58 6 4 11 14 11 22 0 17 -29 19 -35
2z"/>
<path d="M2567 828 c7 -63 19 -84 39 -67 22 18 17 73 -9 97 -13 12 -26 22 -30
22 -3 0 -3 -24 0 -52z"/>
<path d="M2818 875 c-8 -15 -7 -95 2 -95 4 0 11 -11 14 -25 10 -38 26 -30 26
13 -1 40 -33 122 -42 107z"/>
<path d="M2874 865 c-8 -20 23 -83 56 -112 25 -22 65 -29 87 -15 10 6 17 52
14 92 -2 29 -20 44 -55 46 l-36 3 5 -57 c2 -31 2 -48 -1 -37 -3 11 -12 27 -19
35 -7 8 -15 24 -16 34 -5 25 -27 32 -35 11z m129 -22 c14 -25 15 -62 3 -79 -8
-10 -18 -16 -21 -12 -10 9 -17 69 -10 86 5 13 21 16 28 5z"/>
<path d="M1902 847 c-7 -8 -7 -18 -2 -27 6 -8 10 -25 10 -38 0 -22 -1 -22 -19
-5 -10 10 -24 28 -30 41 -6 12 -16 22 -21 22 -13 0 -13 -36 1 -63 37 -72 101
-90 132 -38 21 36 23 107 2 114 -18 8 -29 -8 -18 -28 14 -24 3 -95 -14 -95
-13 0 -15 11 -10 65 5 51 3 65 -7 65 -8 0 -18 -6 -24 -13z"/>
<path d="M3080 784 c0 -52 3 -73 11 -68 6 3 9 15 6 25 -6 21 17 44 33 34 7 -4
9 -19 5 -35 -6 -28 8 -49 20 -30 5 8 11 7 21 -1 8 -6 23 -9 34 -6 11 3 20 1
20 -4 0 -20 38 -8 44 14 6 22 6 22 30 -8 l25 -30 -2 58 c-2 48 2 61 17 73 20
14 20 14 0 14 -11 0 -29 -7 -40 -15 -21 -16 -38 -20 -30 -7 9 15 -12 35 -30
28 -16 -6 -16 -8 4 -22 25 -17 28 -51 8 -80 -19 -26 -30 -12 -31 41 -1 59 -28
85 -95 90 l-50 5 0 -76z m90 20 c0 -8 -4 -12 -10 -9 -5 3 -10 10 -10 16 0 5 5
9 10 9 6 0 10 -7 10 -16z m30 -39 c0 -8 -4 -15 -10 -15 -5 0 -10 7 -10 15 0 8
5 15 10 15 6 0 10 -7 10 -15z"/>
<path d="M1765 778 c11 -71 55 -121 55 -63 0 37 -30 105 -47 105 -12 0 -13 -9
-8 -42z"/>
<path d="M1563 794 c-31 -13 -33 -17 -34 -67 0 -28 -3 -45 -6 -37 -4 8 -12 21
-20 28 -7 7 -13 20 -13 28 0 8 -9 14 -20 14 -24 0 -27 -32 -5 -50 8 -7 15 -17
15 -23 0 -5 12 -21 26 -34 36 -34 58 -15 51 44 -3 28 1 49 11 64 20 29 33 8
30 -51 -2 -36 1 -46 15 -48 10 -2 17 3 17 12 0 9 -4 16 -10 16 -15 0 -9 69 7
82 18 15 29 -1 38 -54 7 -38 25 -53 25 -20 0 9 3 33 6 52 5 32 3 37 -20 48
-34 15 -72 14 -113 -4z"/>
<path d="M3380 801 c-17 -5 -21 -9 -12 -15 17 -10 15 -53 -3 -60 -8 -3 -15
-11 -15 -18 0 -16 36 -49 44 -40 5 5 28 -3 78 -29 10 -5 38 -9 63 -9 44 0 45
1 45 32 l0 31 23 -21 c45 -42 66 -20 22 24 -31 30 -31 34 -3 34 16 0 19 3 11
11 -11 11 -53 -7 -53 -23 0 -5 -5 -8 -11 -8 -7 0 -9 12 -4 36 8 45 -11 43 -36
-3 -17 -30 -17 -32 2 -49 29 -26 25 -46 -8 -38 -55 12 -55 12 -41 36 6 13 11
30 10 40 -2 9 2 19 8 23 16 10 12 27 -7 23 -10 -2 -18 -10 -19 -18 -2 -31 -17
-60 -30 -60 -19 0 -18 29 1 36 25 10 18 49 -10 62 -14 7 -27 12 -28 11 -1 -1
-13 -4 -27 -8z"/>
<path d="M900 781 c0 -6 9 -21 20 -33 11 -12 20 -16 20 -9 0 6 -9 21 -20 33
-11 12 -20 16 -20 9z"/>
<path d="M4087 764 c-22 -29 -14 -47 8 -18 12 16 20 45 13 44 -2 0 -11 -12
-21 -26z"/>
<path d="M1422 740 c0 -14 2 -19 5 -12 2 6 2 18 0 25 -3 6 -5 1 -5 -13z"/>
<path d="M1378 744 c-5 -4 -8 -25 -8 -46 0 -71 49 -130 58 -70 3 16 -2 22 -17
22 -17 0 -20 8 -23 51 -2 28 -6 47 -10 43z"/>
<path d="M2285 698 c-481 -39 -483 -40 -420 -68 22 -10 50 -19 62 -19 12 -1
25 -5 28 -11 3 -5 18 -10 33 -10 15 0 36 -7 46 -15 11 -8 33 -15 49 -15 15 0
38 -5 50 -12 36 -20 141 -30 371 -34 144 -3 223 -1 230 6 5 5 33 10 61 10 27
0 63 7 79 15 15 8 42 15 60 15 17 0 40 7 50 15 11 8 32 15 48 15 15 0 28 5 28
10 0 6 11 10 25 10 14 0 33 4 43 9 9 5 26 12 36 16 86 27 -198 54 -709 68 -49
1 -126 -1 -170 -5z"/>
<path d="M3755 650 c-3 -5 -1 -10 4 -10 6 0 11 5 11 10 0 6 -2 10 -4 10 -3 0
-8 -4 -11 -10z"/>
<path d="M3590 620 c0 -5 7 -10 16 -10 8 0 12 5 9 10 -3 6 -10 10 -16 10 -5 0
-9 -4 -9 -10z"/>
<path d="M1668 613 c7 -3 16 -2 19 1 4 3 -2 6 -13 5 -11 0 -14 -3 -6 -6z"/>
<path d="M3328 613 c6 -2 18 -2 25 0 6 3 1 5 -13 5 -14 0 -19 -2 -12 -5z"/>
<path d="M1568 593 c6 -2 18 -2 25 0 6 3 1 5 -13 5 -14 0 -19 -2 -12 -5z"/>
<path d="M3423 593 c9 -2 23 -2 30 0 6 3 -1 5 -18 5 -16 0 -22 -2 -12 -5z"/>
<path d="M1478 573 c7 -3 16 -2 19 1 4 3 -2 6 -13 5 -11 0 -14 -3 -6 -6z"/>
<path d="M3528 573 c7 -3 16 -2 19 1 4 3 -2 6 -13 5 -11 0 -14 -3 -6 -6z"/>
<path d="M3688 573 c7 -3 16 -2 19 1 4 3 -2 6 -13 5 -11 0 -14 -3 -6 -6z"/>
</g>
</svg>
